<svg width="979" height="979" viewBox="0 0 979 979" fill="none" xmlns="http://www.w3.org/2000/svg">
<path d="M430 980C286.333 980 143.167 980 0 980C0 653.333 0 326.667 0 0C326.667 0 653.333 0 980 0C980 326.667 980 653.333 980 980C796.833 980 613.667 980 430 980ZM517.5 751.877C560.161 751.878 602.821 751.902 645.482 751.848C650.136 751.842 654.81 751.59 659.439 751.101C718.017 744.924 757.582 685.974 741.222 629.323C729.083 587.286 692.03 559.161 647.993 559.11C542.175 558.99 436.357 559.072 330.538 559.116C327.052 559.117 323.555 559.484 320.081 559.844C258.914 566.188 218.848 631.912 241.201 689.207C256.246 727.772 291.178 751.812 332.526 751.856C393.851 751.922 455.175 751.875 517.5 751.877ZM628.77 356.851C628.211 352.559 627.749 348.252 627.081 343.977C611.404 243.621 490.862 194.059 408.901 254.257C346.726 299.923 332.495 383.23 375.981 446.962C418.578 509.389 508.252 525.539 569.443 481.343C611.409 451.032 630.9 409.481 628.77 356.851Z" fill="#1F3A26"/>
</svg>
