<svg width="180" height="63" viewBox="0 0 180 63" fill="none" xmlns="http://www.w3.org/2000/svg">
<path d="M24.751 0.449331C21.7346 1.04016 19.8378 1.69319 16.6348 3.27911C11.9082 5.61134 7.95892 9.09414 5.12915 13.4787C2.48595 17.6146 1.30428 20.6309 0.464679 25.5753C-0.716986 32.4165 0.371389 39.2888 3.54323 45.4459C6.59068 51.3231 11.846 56.5162 17.2568 59.035C28.0161 64.0416 40.9522 62.6733 49.9391 55.5833C54.6347 51.8518 58.4595 46.6897 60.2942 41.5588C60.854 40.004 61.0716 39.1644 61.8491 35.6505C62.0356 34.842 62.1911 32.6963 62.1911 30.8306C62.1911 17.2414 53.4841 5.45586 40.4547 1.38222C39.0243 0.915778 36.9408 0.418235 35.7902 0.262753C32.8983 -0.141501 27.3009 -0.0793082 24.751 0.449331ZM44.1241 13.7586C44.7771 14.4427 44.8082 14.5982 44.4661 16.464C43.9375 19.3249 43.2845 20.5687 42.1339 20.8175C41.6364 20.9419 38.8377 21.0352 35.9768 21.0663C33.0848 21.0663 30.5038 21.2218 30.1929 21.4083C29.4777 21.7815 29.0112 22.9632 28.7935 25.0155C28.5137 27.4099 28.6692 27.4721 34.6086 27.4099C37.4384 27.3788 39.8328 27.4721 40.1437 27.6587C40.859 28.0319 40.9212 29.991 40.3303 32.5098C39.6462 35.4017 39.6773 35.4017 33.4269 35.4017C28.1405 35.4017 27.985 35.4328 27.5497 36.0859C27.3009 36.4901 27.021 37.423 26.8967 38.2004C26.8034 38.9778 26.5857 40.2217 26.4302 40.9991C26.3058 41.7765 25.9949 43.4557 25.8083 44.7307C24.9687 49.9238 24.5644 50.328 20.242 50.328C16.355 50.328 15.9818 50.1103 16.2928 47.8092C16.697 44.513 18.314 35.0908 19.6201 28.0941C19.7756 27.2234 20.0243 25.6996 20.2109 24.6735C20.3664 23.6473 20.6463 22.0303 20.8018 21.0974C20.9883 20.1645 21.2682 18.5164 21.4548 17.4902C22.2011 12.7946 21.6414 13.0123 33.5824 13.0123H43.44L44.1241 13.7586ZM17.4122 20.1645C17.7543 20.5065 18.0342 20.9108 18.0342 21.0663C18.0342 21.2218 17.5366 24.2381 16.9147 27.8142C16.3239 31.3903 15.7641 34.8109 15.6708 35.4017C14.9867 40.4083 14.8312 41.0302 14.0538 41.621C13.1209 42.3673 11.8771 42.4295 10.9442 41.7454C10.1979 41.2479 10.0735 40.3772 10.571 38.9467C10.7265 38.4492 11.0686 36.6456 11.3173 34.9353C12.9344 24.0826 13.5874 20.7864 14.2093 20.1023C14.8934 19.356 16.6037 19.356 17.4122 20.1645ZM50.0946 19.8535C50.8409 20.2889 50.8409 21.1596 50.0635 25.7307C49.3794 29.6178 49.0684 31.6391 48.5087 35.5572C47.6069 41.7454 47.4514 42.0875 45.2436 42.0875C43.44 42.0875 42.7869 41.4966 43.0357 40.0662C43.1601 39.4754 43.3778 38.2004 43.5333 37.2675C43.6887 36.3346 44.1552 33.3805 44.5905 30.7373C46.2386 20.973 46.363 20.3511 47.2026 19.8535C47.8868 19.4493 49.3483 19.4493 50.0946 19.8535ZM10.5399 24.4869C11.0064 24.7978 10.9753 25.4509 10.1357 30.2708C9.8869 31.7945 9.51374 34.0957 9.32717 35.3084L8.95401 37.5785H7.80344C6.21752 37.5785 5.47121 36.77 5.68888 35.1841C5.81327 34.0024 6.55958 29.8977 7.18151 26.788C7.61686 24.6113 9.10949 23.5851 10.5399 24.4869ZM54.9146 24.4558C55.6609 24.9533 55.8785 25.8551 55.6298 27.4099C55.4743 28.3117 55.1944 29.991 55.0389 31.2037C54.417 35.153 54.0128 36.8011 53.5463 37.1742C53.2664 37.3919 52.4579 37.5785 51.7116 37.5785C50.1568 37.5785 50.219 37.7029 50.6854 33.9402C50.9653 31.7635 51.1208 30.644 51.7738 26.6014C52.0848 24.7357 53.7018 23.6162 54.9146 24.4558Z" fill="#0D0F0D"/>
<path d="M88.8407 21.626C88.7163 21.7193 88.623 22.3101 88.623 22.8698C88.623 23.6473 88.8718 24.207 89.5559 24.86C90.3644 25.6996 90.6443 25.7929 92.1058 25.6996L93.754 25.6063L93.8472 23.4918L93.9405 21.4083H91.4839C90.1468 21.4083 88.934 21.5016 88.8407 21.626Z" fill="#0D0F0D"/>
<path d="M120.217 21.7503C115.895 22.4034 112.381 25.171 110.919 29.1202C110.204 31.0171 110.08 31.8878 110.08 34.4688C110.08 37.9516 110.702 40.1594 112.35 42.4606C114.744 45.8501 119.626 47.4049 125.379 46.6275C126.965 46.4409 128.458 46.0989 128.644 45.8812C128.924 45.6013 128.986 44.9794 128.8 43.6422C128.582 41.8075 128.551 41.7765 127.649 41.8697C122.207 42.3051 121.523 42.3051 120.248 41.8075C117.17 40.6259 115.677 38.2315 115.708 34.4688C115.708 30.5506 117.014 28.2184 119.813 27.0056C121.212 26.3837 121.772 26.3215 124.228 26.477C125.752 26.6014 127.4 26.7569 127.836 26.8813C128.644 27.0678 128.675 27.0367 128.893 24.9844C129.017 23.6161 128.986 22.8076 128.737 22.4967C128.116 21.7503 123.078 21.315 120.217 21.7503Z" fill="#0D0F0D"/>
<path d="M70.8048 21.9369C70.6804 22.0302 70.5872 27.5654 70.5872 34.22V46.2855H73.0749H75.5626V41.4655V36.6456H79.885C83.0257 36.6456 84.2696 36.5523 84.5184 36.2413C84.736 35.9925 84.7982 35.1529 84.6738 34.0646L84.4873 32.3232L80.1027 32.2299L75.7181 32.1366L75.6248 29.2446L75.5315 26.3837H80.538H85.5135V24.0515V21.7193H78.268C74.2565 21.7193 70.8981 21.8126 70.8048 21.9369Z" fill="#0D0F0D"/>
<path d="M98.8848 25.8551V27.8453L97.4233 28.1251L95.9307 28.405V30.1153V31.8256L97.4233 31.9189L98.8848 32.0122V37.5785C98.8848 41.31 99.0092 43.4246 99.258 44.0154C99.7866 45.1971 100.937 46.1922 102.088 46.4099C103.301 46.6586 106.006 46.6586 107.25 46.4099C108.214 46.2233 108.214 46.1922 108.214 44.202V42.1807L107.281 42.3984C105.788 42.7405 104.513 42.3051 104.016 41.2789C103.643 40.5637 103.549 39.4443 103.611 36.1169L103.705 31.8878L105.571 31.8567L107.436 31.8256L107.53 29.8665L107.623 27.9386H105.571H103.549V25.9173V23.896H101.217H98.8848V25.8551Z" fill="#0D0F0D"/>
<path d="M136.512 27.9075C132.158 29.338 129.639 33.3494 130.075 38.1383C130.572 43.207 133.62 46.3477 138.471 46.8142C144.721 47.3739 148.857 43.5802 148.919 37.2365C148.981 33.3805 147.395 30.4264 144.379 28.6539C143.197 27.9697 142.544 27.8454 140.15 27.7521C138.564 27.6899 136.947 27.7521 136.512 27.9075ZM141.487 32.1367C141.985 32.3854 142.762 33.225 143.228 34.0025C143.944 35.2463 144.037 35.6817 143.913 37.5164C143.695 41.1857 142.358 42.8649 139.621 42.8649C136.418 42.8649 134.957 40.5327 135.361 36.0237C135.517 34.0335 136.201 32.7897 137.413 32.1367C138.471 31.5458 140.368 31.5458 141.487 32.1367Z" fill="#0D0F0D"/>
<path d="M158.372 28.2494C157.813 28.5915 157.191 29.1512 156.973 29.4933C156.444 30.3018 156.102 30.2707 156.102 29.4C156.102 28.2494 155.512 27.9384 153.397 27.9384H151.438V37.0808V46.2232L153.273 46.3475C156.32 46.503 156.102 46.9384 156.102 41.0612C156.102 36.4589 156.165 35.7748 156.755 34.5309C157.471 33.0694 158.093 32.7273 160.58 32.3541L162.166 32.1365L162.415 30.3018C162.57 29.3067 162.601 28.2805 162.508 28.0628C162.259 27.3787 159.554 27.5031 158.372 28.2494Z" fill="#0D0F0D"/>
<path d="M168.79 28.063C166.986 28.716 166.178 29.369 165.089 30.955C163.659 33.0073 163.286 34.2823 163.255 36.9877C163.223 42.7094 165.804 45.8191 171.184 46.5654C173.672 46.9385 177.59 46.5032 178.741 45.788C179.3 45.4148 179.425 45.0727 179.425 43.6423C179.425 41.7143 179.394 41.7143 177.124 42.3984C175.196 42.9893 172.273 42.9893 170.904 42.4295C169.692 41.932 168.23 40.1595 168.23 39.1955C168.23 38.5425 168.354 38.5114 174.076 38.4492L179.891 38.3559L179.984 36.8011C180.14 34.4378 179.114 31.3903 177.59 29.68C176.066 27.9697 171.371 27.099 168.79 28.063ZM173.858 31.6702C174.543 32.0433 175.382 33.5671 175.382 34.4689C175.382 35.0597 175.196 35.0908 171.806 35.0908C168.603 35.0908 168.23 35.0286 168.23 34.531C168.23 33.7225 169.412 31.9811 170.189 31.6702C171.122 31.297 173.112 31.297 173.858 31.6702Z" fill="#0D0F0D"/>
<path d="M89.6181 28.4051L88.623 28.8404L88.6852 37.4853L88.7785 46.1301L91.2041 46.2234L93.5985 46.3167V37.1121V27.9386H92.1369C91.2973 27.9697 90.1779 28.1563 89.6181 28.4051Z" fill="#0D0F0D"/>
</svg>
