<svg width="150" height="52" viewBox="0 0 150 52" fill="none" xmlns="http://www.w3.org/2000/svg">
<path d="M20.6258 0.374382C18.1122 0.866745 16.5315 1.41093 13.8624 2.73253C9.92347 4.67606 6.63243 7.57839 4.27429 11.2322C2.07162 14.6787 1.0869 17.1924 0.387232 21.3127C-0.597489 27.0137 0.309491 32.7406 2.95269 37.8715C5.49223 42.7692 9.87165 47.0968 14.3806 49.1958C23.3468 53.3679 34.1269 52.2277 41.6159 46.3194C45.5289 43.2097 48.7163 38.9081 50.2452 34.6323C50.7116 33.3366 50.893 32.6369 51.5409 29.7087C51.6964 29.0349 51.8259 27.2469 51.8259 25.6921C51.8259 14.3678 44.5701 4.54649 33.7123 1.15179C32.5202 0.763088 30.784 0.348469 29.8252 0.218903C27.4152 -0.117977 22.7508 -0.0661507 20.6258 0.374382ZM36.7701 11.4654C37.3143 12.0355 37.3402 12.1651 37.0551 13.7199C36.6146 16.104 36.0704 17.1405 35.1116 17.3479C34.697 17.4515 32.3647 17.5293 29.9807 17.5552C27.5707 17.5552 25.4199 17.6847 25.1607 17.8402C24.5647 18.1512 24.176 19.1359 23.9946 20.8462C23.7614 22.8416 23.891 22.8934 28.8405 22.8416C31.1986 22.8156 33.194 22.8934 33.4531 23.0489C34.0491 23.3598 34.101 24.9924 33.6086 27.0914C33.0385 29.5014 33.0644 29.5014 27.8558 29.5014C23.4504 29.5014 23.3209 29.5273 22.9581 30.0715C22.7508 30.4084 22.5175 31.1858 22.4139 31.8336C22.3361 32.4815 22.1547 33.518 22.0252 34.1658C21.9215 34.8137 21.6624 36.213 21.5069 37.2755C20.8072 41.6031 20.4704 41.94 16.8683 41.94C13.6291 41.94 13.3182 41.7586 13.5773 39.841C13.9142 37.0941 15.2617 29.2422 16.3501 23.4117C16.4796 22.6861 16.687 21.4163 16.8424 20.5612C16.972 19.706 17.2052 18.3585 17.3348 17.5811C17.4903 16.8037 17.7235 15.4302 17.879 14.5751C18.5009 10.6621 18.0345 10.8435 27.9853 10.8435H36.2L36.7701 11.4654ZM14.5102 16.8037C14.7953 17.0887 15.0285 17.4256 15.0285 17.5552C15.0285 17.6847 14.6139 20.1984 14.0956 23.1784C13.6032 26.1585 13.1368 29.009 13.059 29.5014C12.4889 33.6735 12.3594 34.1918 11.7115 34.6841C10.9341 35.3061 9.89756 35.3579 9.12015 34.7878C8.49822 34.3732 8.39457 33.6476 8.80919 32.4555C8.93876 32.0409 9.22381 30.5379 9.43112 29.1127C10.7786 20.0688 11.3228 17.3219 11.8411 16.7518C12.4112 16.1299 13.8364 16.1299 14.5102 16.8037ZM41.7455 16.5445C42.3674 16.9073 42.3674 17.6329 41.7196 21.4422C41.1495 24.6814 40.8904 26.3658 40.4239 29.631C39.6724 34.7878 39.5428 35.0728 37.703 35.0728C36.2 35.0728 35.6558 34.5805 35.8631 33.3884C35.9667 32.8961 36.1481 31.8336 36.2777 31.0562C36.4073 30.2788 36.796 27.817 37.1588 25.6143C38.5322 17.4774 38.6359 16.9592 39.3355 16.5445C39.9056 16.2077 41.1236 16.2077 41.7455 16.5445ZM8.78327 20.4057C9.17198 20.6648 9.14606 21.209 8.44639 25.2256C8.23908 26.4954 7.92812 28.413 7.77264 29.4236L7.46167 31.3153H6.50287C5.18127 31.3153 4.55934 30.6416 4.74073 29.32C4.84439 28.3353 5.46632 24.9147 5.98459 22.3233C6.34738 20.5093 7.59124 19.6542 8.78327 20.4057ZM45.7621 20.3798C46.3841 20.7944 46.5655 21.5459 46.3581 22.8416C46.2286 23.5931 45.9953 24.9924 45.8658 26.003C45.3475 29.2941 45.0106 30.6675 44.6219 30.9785C44.3887 31.1599 43.7149 31.3153 43.093 31.3153C41.7973 31.3153 41.8492 31.419 42.2379 28.2834C42.4711 26.4695 42.6007 25.5366 43.1448 22.1678C43.404 20.613 44.7515 19.6801 45.7621 20.3798Z" fill="#FFF8F3"/>
<path d="M74.034 18.0217C73.9303 18.0994 73.8526 18.5918 73.8526 19.0582C73.8526 19.7061 74.0599 20.1725 74.63 20.7167C75.3038 21.4164 75.537 21.4941 76.7549 21.4164L78.1283 21.3386L78.2061 19.5765L78.2838 17.8403H76.2366C75.1224 17.8403 74.1117 17.918 74.034 18.0217Z" fill="#FFF8F3"/>
<path d="M100.181 18.1252C96.5789 18.6694 93.6506 20.9758 92.4327 24.2668C91.8367 25.8475 91.733 26.5731 91.733 28.724C91.733 31.6263 92.2513 33.4662 93.6247 35.3838C95.6201 38.2084 99.6885 39.5041 104.483 38.8562C105.804 38.7007 107.048 38.4157 107.204 38.2343C107.437 38.0011 107.489 37.4828 107.333 36.3685C107.152 34.8396 107.126 34.8137 106.374 34.8914C101.839 35.2542 101.269 35.2542 100.207 34.8396C97.6414 33.8549 96.3975 31.8595 96.4234 28.724C96.4234 25.4588 97.5118 23.5153 99.844 22.5047C101.01 21.9864 101.477 21.9346 103.524 22.0641C104.794 22.1678 106.167 22.2974 106.53 22.401C107.204 22.5565 107.229 22.5306 107.411 20.8203C107.514 19.6801 107.489 19.0063 107.281 18.7472C106.763 18.1252 102.565 17.7625 100.181 18.1252Z" fill="#FFF8F3"/>
<path d="M59.004 18.2807C58.9004 18.3585 58.8226 22.9711 58.8226 28.5167V38.5712H60.8957H62.9688V34.5545V30.5379H66.5708C69.1881 30.5379 70.2247 30.4602 70.432 30.201C70.6134 29.9937 70.6652 29.2941 70.5615 28.3871L70.4061 26.9359L66.7522 26.8582L63.0984 26.7804L63.0207 24.3705L62.9429 21.9864H67.115H71.2612V20.0429V18.0993H65.2233C61.8805 18.0993 59.0818 18.1771 59.004 18.2807Z" fill="#FFF8F3"/>
<path d="M82.4041 21.5459V23.2044L81.1861 23.4376L79.9423 23.6708V25.0961V26.5213L81.1861 26.5991L82.4041 26.6768V31.3153C82.4041 34.425 82.5077 36.1871 82.7151 36.6795C83.1556 37.6642 84.1144 38.4934 85.0732 38.6748C86.0838 38.8821 88.3383 38.8821 89.3749 38.6748C90.1782 38.5194 90.1782 38.4934 90.1782 36.835V35.1506L89.4008 35.332C88.1569 35.617 87.0945 35.2542 86.6799 34.3991C86.3689 33.8031 86.2911 32.8702 86.343 30.0974L86.4207 26.5731L87.9755 26.5472L89.5304 26.5213L89.6081 24.8888L89.6858 23.2821H87.9755H86.2911V21.5977V19.9133H84.3476H82.4041V21.5459Z" fill="#FFF8F3"/>
<path d="M113.76 23.2562C110.132 24.4482 108.033 27.7911 108.396 31.7818C108.81 36.0058 111.35 38.623 115.392 39.0117C120.601 39.4782 124.047 36.3167 124.099 31.0303C124.151 27.817 122.829 25.3552 120.316 23.8781C119.331 23.308 118.787 23.2044 116.792 23.1266C115.47 23.0748 114.122 23.1266 113.76 23.2562ZM117.906 26.7805C118.321 26.9878 118.968 27.6875 119.357 28.3353C119.953 29.3718 120.031 29.7346 119.927 31.2635C119.746 34.3214 118.631 35.7207 116.351 35.7207C113.682 35.7207 112.464 33.7772 112.801 30.0197C112.93 28.3612 113.501 27.3247 114.511 26.7805C115.392 26.2881 116.973 26.2881 117.906 26.7805Z" fill="#FFF8F3"/>
<path d="M131.977 23.5413C131.511 23.8263 130.992 24.2928 130.811 24.5778C130.37 25.2516 130.085 25.2256 130.085 24.5001C130.085 23.5413 129.593 23.2821 127.831 23.2821H126.198V30.9007V38.5194L127.727 38.623C130.267 38.7526 130.085 39.1154 130.085 34.2177C130.085 30.3825 130.137 29.8124 130.63 28.7758C131.226 27.5579 131.744 27.2728 133.817 26.9619L135.139 26.7805L135.346 25.2516C135.475 24.4223 135.501 23.5672 135.424 23.3858C135.216 22.8157 132.962 22.9193 131.977 23.5413Z" fill="#FFF8F3"/>
<path d="M140.658 23.3858C139.155 23.93 138.481 24.4742 137.574 25.7958C136.382 27.5061 136.071 28.5685 136.045 30.823C136.02 35.5911 138.17 38.1825 142.653 38.8044C144.727 39.1154 147.992 38.7526 148.951 38.1566C149.417 37.8456 149.521 37.5606 149.521 36.3685C149.521 34.7619 149.495 34.7619 147.603 35.332C145.996 35.8244 143.56 35.8244 142.42 35.3579C141.41 34.9433 140.192 33.4662 140.192 32.6629C140.192 32.1187 140.295 32.0928 145.063 32.041L149.909 31.9632L149.987 30.6675C150.117 28.6981 149.261 26.1585 147.992 24.7333C146.722 23.308 142.809 22.5825 140.658 23.3858ZM144.882 26.3918C145.452 26.7027 146.152 27.9725 146.152 28.724C146.152 29.2164 145.996 29.2423 143.172 29.2423C140.503 29.2423 140.192 29.1904 140.192 28.7758C140.192 28.1021 141.176 26.6509 141.824 26.3918C142.602 26.0808 144.26 26.0808 144.882 26.3918Z" fill="#FFF8F3"/>
<path d="M74.6818 23.6709L73.8526 24.0337L73.9044 31.2377L73.9822 38.4417L76.0034 38.5194L77.9988 38.5972V30.9267V23.2822H76.7808C76.0812 23.3081 75.1483 23.4636 74.6818 23.6709Z" fill="#FFF8F3"/>
</svg>
